<?xml version="1.0" encoding="UTF-8"?>
<svg xmlns="http://www.w3.org/2000/svg" viewBox="0 0 393 852" width="393" height="852" font-family="-apple-system, system-ui, sans-serif">
  <rect width="393" height="852" fill="#F5F3EE"/>

  <rect x="134.5" y="11" width="124" height="37" rx="18.5" fill="#000000"/>

  <line x1="0" y1="95" x2="393" y2="95" stroke="#E5E0D8" stroke-width="0.5"/>
  <circle cx="24" cy="68" r="18" fill="#2563EB"/>
  <text x="24" y="74" font-size="17" font-weight="700" fill="white" text-anchor="middle">P</text>
  <text x="196.5" y="74" font-size="20" font-weight="700" fill="#1F1B16" text-anchor="middle">Workspace</text>

  <text x="16" y="124" font-size="13" font-weight="700" fill="#6B6660" letter-spacing="0.05em">3 WORKSPACES · PIA WORKSPACE IS CURRENT</text>

  <!-- Active workspace card -->
  <g transform="translate(12, 138)">
    <rect x="0" y="0" width="369" height="88" rx="12" fill="white" stroke="#2563EB" stroke-width="1.5"/>
    <rect x="14" y="14" width="44" height="44" rx="12" fill="#2563EB"/>
    <text x="36" y="44" font-size="20" font-weight="700" fill="white" text-anchor="middle">P</text>
    <text x="70" y="32" font-size="17" font-weight="700" fill="#1F1B16">PIA Workspace</text>
    <g transform="translate(70, 42)">
      <text x="0" y="14" font-size="13" fill="#6B6660">Owner</text>
      <text x="48" y="14" font-size="13" fill="#A09C95">·</text>
      <text x="56" y="14" font-size="13" fill="#6B6660">12 documents</text>
      <text x="148" y="14" font-size="13" fill="#A09C95">·</text>
      <text x="156" y="14" font-size="13" fill="#6B6660">5 conversations</text>
    </g>
    <text x="357" y="50" font-size="20" font-weight="700" fill="#2563EB" text-anchor="end">✓</text>
  </g>

  <!-- Alpha Compliance -->
  <g transform="translate(12, 234)">
    <rect x="0" y="0" width="369" height="88" rx="12" fill="white"/>
    <rect x="14" y="14" width="44" height="44" rx="12" fill="#E5E0D8"/>
    <text x="36" y="44" font-size="20" font-weight="700" fill="#1F1B16" text-anchor="middle">A</text>
    <text x="70" y="32" font-size="17" font-weight="600" fill="#1F1B16">Alpha Compliance</text>
    <g transform="translate(70, 42)">
      <text x="0" y="14" font-size="13" fill="#6B6660">Admin</text>
      <text x="40" y="14" font-size="13" fill="#A09C95">·</text>
      <text x="48" y="14" font-size="13" fill="#6B6660">3 documents</text>
      <text x="130" y="14" font-size="13" fill="#A09C95">·</text>
      <text x="138" y="14" font-size="13" fill="#6B6660">1 conversation</text>
    </g>
  </g>

  <!-- Research Lab -->
  <g transform="translate(12, 330)">
    <rect x="0" y="0" width="369" height="88" rx="12" fill="white"/>
    <rect x="14" y="14" width="44" height="44" rx="12" fill="#E5E0D8"/>
    <text x="36" y="44" font-size="20" font-weight="700" fill="#1F1B16" text-anchor="middle">R</text>
    <text x="70" y="32" font-size="17" font-weight="600" fill="#1F1B16">Research Lab</text>
    <g transform="translate(70, 42)">
      <text x="0" y="14" font-size="13" fill="#6B6660">Member</text>
      <text x="56" y="14" font-size="13" fill="#A09C95">·</text>
      <text x="64" y="14" font-size="13" fill="#6B6660">0 documents</text>
    </g>
  </g>

  <!-- Sign out footnote -->
  <text x="16" y="440" font-size="17" fill="#6B6660">Sign out <tspan font-size="13" fill="#A09C95">— Sign out from the desktop app for now.</tspan></text>

  <!-- 4-tab bottom bar with Workspace active -->
  <line x1="0" y1="762" x2="393" y2="762" stroke="#E5E0D8" stroke-width="0.5"/>
  <g transform="translate(0, 762)">
    <rect x="0" y="0" width="98" height="56" fill="none"/>
    <g transform="translate(49, 18)" stroke="#6B6660" fill="none" stroke-width="1.6" stroke-linecap="round" stroke-linejoin="round">
      <path d="M-6,-9 h5 l4,4 v9 a1,1 0 0 1 -1,1 h-8 a1,1 0 0 1 -1,-1 v-12 a1,1 0 0 1 1,-1 z"/>
      <path d="M-1,-9 v4 h4"/>
      <path d="M-3,1 h5 M-3,4 h4"/>
    </g>
    <text x="49" y="48" font-size="10" font-weight="600" fill="#6B6660" text-anchor="middle">Documents</text>
    <rect x="98" y="0" width="98" height="56" fill="none"/>
    <g transform="translate(147, 18)" stroke="#6B6660" fill="none" stroke-width="1.6" stroke-linecap="round" stroke-linejoin="round">
      <circle cx="-1" cy="-1" r="5"/>
      <line x1="3" y1="3" x2="7" y2="7"/>
    </g>
    <text x="147" y="48" font-size="10" font-weight="600" fill="#6B6660" text-anchor="middle">Search</text>
    <rect x="196" y="0" width="98" height="56" fill="none"/>
    <g transform="translate(245, 18)" stroke="#6B6660" fill="none" stroke-width="1.6" stroke-linecap="round" stroke-linejoin="round">
      <path d="M-9,-3 a2,2 0 0 1 2,-2 h10 a2,2 0 0 1 2,2 v6 a2,2 0 0 1 -2,2 h-7 l-3,2 v-2 h0 a2,2 0 0 1 -2,-2 z"/>
    </g>
    <text x="245" y="48" font-size="10" font-weight="600" fill="#6B6660" text-anchor="middle">Conversations</text>
    <rect x="294" y="0" width="99" height="56" fill="none"/>
    <g transform="translate(343, 18)" stroke="#2563EB" fill="none" stroke-width="1.6" stroke-linecap="round" stroke-linejoin="round">
      <path d="M0,-8 l7,4 -7,4 -7,-4 z"/>
      <path d="M-7,0 l7,4 7,-4"/>
    </g>
    <text x="343" y="48" font-size="10" font-weight="600" fill="#2563EB" text-anchor="middle">Workspace</text>
  </g>
  <rect x="129.5" y="841" width="134" height="5" rx="2.5" fill="#000000"/>

  <text x="16" y="838" font-size="9" fill="#A09C95">Workspace — Workspace tab (peer of Documents / Search / Conversations)</text>
</svg>
