<?xml version="1.0" encoding="UTF-8"?>
<svg xmlns="http://www.w3.org/2000/svg" viewBox="0 0 393 852" width="393" height="852" font-family="-apple-system, system-ui, sans-serif">
  <rect width="393" height="852" fill="#F5F3EE"/>

  <!-- Persistent offline banner -->
  <g transform="translate(0, 60)">
    <rect x="0" y="0" width="393" height="36" fill="#FEE2E2"/>
    <circle cx="22" cy="18" r="4" fill="#991B1B"/>
    <text x="36" y="23" font-size="13" font-weight="500" fill="#991B1B">You're offline. Some actions are disabled.</text>
  </g>

  <rect x="134.5" y="11" width="124" height="37" rx="18.5" fill="#000000"/>

  <line x1="0" y1="95" x2="393" y2="95" stroke="#E5E0D8" stroke-width="0.5"/>
  <circle cx="24" cy="68" r="18" fill="#2563EB"/>
  <text x="24" y="74" font-size="17" font-weight="700" fill="white" text-anchor="middle">P</text>
  <text x="196.5" y="74" font-size="20" font-weight="700" fill="#1F1B16" text-anchor="middle">Documents</text>

  <text x="16" y="124" font-size="13" font-weight="700" fill="#6B6660" letter-spacing="0.05em">12 DOCUMENTS · WORKSPACE INVENTORY</text>

  <g transform="translate(12, 138)">
    <rect x="0" y="0" width="369" height="84" rx="12" fill="white"/>
    <text x="56" y="30" font-size="17" font-weight="600" fill="#1F1B16">Q3 2026 Risk Summary</text>
    <g transform="translate(56, 38)">
      <rect x="0" y="0" width="48" height="20" rx="4" fill="#DCFCE7"/>
      <text x="24" y="14" font-size="11" font-weight="700" fill="#166534" text-anchor="middle">READY</text>
    </g>
  </g>

  <g transform="translate(12, 230)">
    <rect x="0" y="0" width="369" height="84" rx="12" fill="white"/>
    <text x="56" y="30" font-size="17" font-weight="600" fill="#1F1B16">Onboarding Handbook</text>
    <g transform="translate(56, 38)">
      <rect x="0" y="0" width="84" height="20" rx="4" fill="#DBEAFE"/>
      <text x="42" y="14" font-size="11" font-weight="700" fill="#1E40AF" text-anchor="middle">PROCESSING</text>
    </g>
  </g>

  <g transform="translate(12, 322)">
    <rect x="0" y="0" width="369" height="84" rx="12" fill="white"/>
    <text x="56" y="30" font-size="17" font-weight="600" fill="#1F1B16">Customer Churn Analysis</text>
    <g transform="translate(56, 38)">
      <rect x="0" y="0" width="48" height="20" rx="4" fill="#DCFCE7"/>
      <text x="24" y="14" font-size="11" font-weight="700" fill="#166534" text-anchor="middle">READY</text>
    </g>
  </g>

  <!-- 4-tab bar -->
  <line x1="0" y1="762" x2="393" y2="762" stroke="#E5E0D8" stroke-width="0.5"/>
  <g transform="translate(0, 762)">
    <rect x="0" y="0" width="98" height="56" fill="none"/>
    <g transform="translate(49, 18)" stroke="#2563EB" fill="none" stroke-width="1.6" stroke-linecap="round" stroke-linejoin="round">
      <path d="M-6,-9 h5 l4,4 v9 a1,1 0 0 1 -1,1 h-8 a1,1 0 0 1 -1,-1 v-12 a1,1 0 0 1 1,-1 z"/>
      <path d="M-1,-9 v4 h4"/>
      <path d="M-3,1 h5 M-3,4 h4"/>
    </g>
    <text x="49" y="48" font-size="10" font-weight="600" fill="#2563EB" text-anchor="middle">Documents</text>
    <rect x="98" y="0" width="98" height="56" fill="none"/>
    <g transform="translate(147, 18)" stroke="#6B6660" fill="none" stroke-width="1.6" stroke-linecap="round" stroke-linejoin="round">
      <circle cx="-1" cy="-1" r="5"/>
      <line x1="3" y1="3" x2="7" y2="7"/>
    </g>
    <text x="147" y="48" font-size="10" font-weight="600" fill="#6B6660" text-anchor="middle">Search</text>
    <rect x="196" y="0" width="98" height="56" fill="none"/>
    <g transform="translate(245, 18)" stroke="#6B6660" fill="none" stroke-width="1.6" stroke-linecap="round" stroke-linejoin="round">
      <path d="M-9,-3 a2,2 0 0 1 2,-2 h10 a2,2 0 0 1 2,2 v6 a2,2 0 0 1 -2,2 h-7 l-3,2 v-2 h0 a2,2 0 0 1 -2,-2 z"/>
    </g>
    <text x="245" y="48" font-size="10" font-weight="600" fill="#6B6660" text-anchor="middle">Conversations</text>
    <rect x="294" y="0" width="99" height="56" fill="none"/>
    <g transform="translate(343, 18)" stroke="#6B6660" fill="none" stroke-width="1.6" stroke-linecap="round" stroke-linejoin="round">
      <path d="M0,-8 l7,4 -7,4 -7,-4 z"/>
      <path d="M-7,0 l7,4 7,-4"/>
    </g>
    <text x="343" y="48" font-size="10" font-weight="600" fill="#6B6660" text-anchor="middle">Workspace</text>
  </g>
  <rect x="129.5" y="841" width="134" height="5" rx="2.5" fill="#000000"/>

  <!-- FAB disabled (grayed) -->
  <g transform="translate(321, 706)" opacity="0.4">
    <circle cx="0" cy="0" r="28" fill="#2563EB"/>
    <line x1="0" y1="-12" x2="0" y2="12" stroke="white" stroke-width="2.2" stroke-linecap="round"/>
    <line x1="-12" y1="0" x2="12" y2="0" stroke="white" stroke-width="2.2" stroke-linecap="round"/>
  </g>

  <text x="16" y="838" font-size="9" fill="#A09C95">Workspace — Offline state (T6: persistent banner + destructive actions disabled)</text>
</svg>
